<?xml version="1.0" encoding="utf-8"?>
<!-- Generator: Adobe Illustrator 22.1.0, SVG Export Plug-In . SVG Version: 6.00 Build 0)  -->
<svg version="1.1" id="图层_1" xmlns="http://www.w3.org/2000/svg" xmlns:xlink="http://www.w3.org/1999/xlink" x="0px" y="0px"
	 viewBox="0 0 200 200" style="enable-background:new 0 0 200 200;" xml:space="preserve">
<path d="M107.4,184.6V41.3l35.2,36.6c0.9,0.9,2.5,0.9,3.4,0l7.3-7.3c0.9-0.9,0.9-2.5,0-3.4l-44.3-46.1c0-0.1-0.1-0.1-0.1-0.2
	l-0.2-0.2l-6.8-7.1c-0.5-0.5-1.2-0.7-1.8-0.7c-0.7,0-1.3,0.2-1.8,0.7L91.1,21c0,0-0.1,0.1-0.1,0.1L46.6,67.2c-0.9,0.9-0.9,2.5,0,3.4
	l7.3,7.3c0.9,0.9,2.5,0.9,3.4,0l34.9-36.2v142.9c0,1.3,1.1,2.4,2.4,2.4H105C106.4,187,107.4,185.9,107.4,184.6L107.4,184.6z"/>
</svg>
