<?xml version="1.0" encoding="utf-8"?>
<!-- Generator: Adobe Illustrator 22.1.0, SVG Export Plug-In . SVG Version: 6.00 Build 0)  -->
<svg version="1.1" id="图层_1" xmlns="http://www.w3.org/2000/svg" xmlns:xlink="http://www.w3.org/1999/xlink" x="0px" y="0px"
	 viewBox="0 0 200 200" style="enable-background:new 0 0 200 200;" xml:space="preserve">
<path d="M92.6,15.3v143.3L57.4,122c-0.9-0.9-2.5-0.9-3.4,0l-7.3,7.3c-0.9,0.9-0.9,2.5,0,3.4l44.3,46.1c0,0.1,0.1,0.1,0.1,0.2
	l0.2,0.2l6.8,7.1c0.5,0.5,1.2,0.7,1.8,0.7c0.7,0,1.3-0.2,1.8-0.7l7.1-7.3c0,0,0.1-0.1,0.1-0.1l44.3-46.1c0.9-0.9,0.9-2.5,0-3.4
	L146,122c-0.9-0.9-2.5-0.9-3.4,0l-34.9,36.2V15.3c0-1.3-1.1-2.4-2.4-2.4H95C93.6,12.9,92.6,14,92.6,15.3L92.6,15.3z"/>
</svg>
